# xmcd
#
# Track frame offsets: 
#        150
#        14943
#        29326
#        42101
#        57717
#        72341
#        81676
#        98458
#        113077
#        123014
#        135599
#        153333
#        168938
#        184114
#        195065
#        208826
#        221379
#        235401
#        250813
#        261591
#        273671
#        287375
#        314355
#
# Disc length: 4405 seconds
#
# Revision: 0
# Processed by: cddbd v1.5.1PL0 Copyright (c) Steve Scherf et al.
# Submitted via: ExactAudioCopy v0.95a5
#
DISCID=51113317
DTITLE=Hazy Osterwald   - Jet Set
DYEAR=1900
DGENRE=Jazz
TTITLE0=Swinging London
TTITLE1=Oumbala Oumbalo
TTITLE2=Aspen Leaves
TTITLE3=New Mexico
TTITLE4=Tai-Weh
TTITLE5=Rio
TTITLE6=The Power Of The Lord
TTITLE7=Mamy Blue
TTITLE8=Hazy, Hazy, Crazy, Crazy
TTITLE9=Take My Hand
TTITLE10=Trouble
TTITLE11=Much To Say, Much To Do
TTITLE12=Ein Schones Wochenend
TTITLE13=Putz Den Schmutz Von Der Welt
TTITLE14=Die Rezession
TTITLE15=Hundert Jahre
TTITLE16=Das Mach Ich Mit Dem Kleinen Finger
TTITLE17=Nur Ein Flirt
TTITLE18=Sing A Song
TTITLE19=Alter Muddy River
TTITLE20=Figaro's 2nd Wedding
TTITLE21=New Orleans Funeral
TTITLE22=Home-Town Mountain-Band
EXTD=
EXTT0=
EXTT1=
EXTT2=
EXTT3=
EXTT4=
EXTT5=
EXTT6=
EXTT7=
EXTT8=
EXTT9=
EXTT10=
EXTT11=
EXTT12=
EXTT13=
EXTT14=
EXTT15=
EXTT16=
EXTT17=
EXTT18=
EXTT19=
EXTT20=
EXTT21=
EXTT22=
PLAYORDER=
